HIERARCHY
ROOT Hips
{
	OFFSET 0.000000 97.167313 0.000000
	CHANNELS 6 Xposition Yposition Zposition Xrotation Yrotation Zrotation
	JOINT Spine
	{
		OFFSET 0.000000 13.784798 0.064400
		CHANNELS 3 Xrotation Yrotation Zrotation
		JOINT Spine1
		{
			OFFSET 0.000000 12.037903 0.404700
			CHANNELS 3 Xrotation Yrotation Zrotation
			JOINT Spine2
			{
				OFFSET 0.000000 17.795601 0.420200
				CHANNELS 3 Xrotation Yrotation Zrotation
				JOINT Neck
				{
					OFFSET 0.000000 39.131302 11.954600
					CHANNELS 3 Xrotation Yrotation Zrotation
					JOINT Head
					{
						OFFSET 0.000000 14.456192 15.627699
						CHANNELS 3 Xrotation Yrotation Zrotation
						JOINT HeadTop_End
						{
							OFFSET 0.000000 15.703506 7.603401
							CHANNELS 3 Xrotation Yrotation Zrotation
							End Site
							{
								OFFSET 0.000000 17.447403 0.000000
							}
						}
					}
				}
				JOINT LeftShoulder
				{
					OFFSET 17.399500 24.608795 1.168800
					CHANNELS 3 Xrotation Yrotation Zrotation
					JOINT LeftArm
					{
						OFFSET 18.980635 5.765305 1.818600
						CHANNELS 3 Xrotation Yrotation Zrotation
						JOINT LeftForeArm
						{
							OFFSET 49.290169 0.000000 0.000000
							CHANNELS 3 Xrotation Yrotation Zrotation
							JOINT LeftHand
							{
								OFFSET 31.562012 0.000000 0.000000
								CHANNELS 3 Xrotation Yrotation Zrotation
								JOINT LeftHandThumb1
								{
									OFFSET 6.133995 -4.388519 7.076070
									CHANNELS 3 Xrotation Yrotation Zrotation
									JOINT LeftHandThumb2
									{
										OFFSET 6.037666 -3.485840 3.485847
										CHANNELS 3 Xrotation Yrotation Zrotation
										JOINT LeftHandThumb3
										{
											OFFSET 6.496506 -3.750763 3.750761
											CHANNELS 3 Xrotation Yrotation Zrotation
											JOINT LeftHandThumb4
											{
												OFFSET 5.616882 -3.242905 3.242910
												CHANNELS 3 Xrotation Yrotation Zrotation
												End Site
												{
													OFFSET -1.254608 7.132141 0.375429
												}
											}
										}
									}
								}
								JOINT LeftHandPinky1
								{
									OFFSET 18.920792 -0.453171 -11.426712
									CHANNELS 3 Xrotation Yrotation Zrotation
									JOINT LeftHandPinky2
									{
										OFFSET 4.919586 0.000000 0.000000
										CHANNELS 3 Xrotation Yrotation Zrotation
										JOINT LeftHandPinky3
										{
											OFFSET 5.233047 0.000000 0.000000
											CHANNELS 3 Xrotation Yrotation Zrotation
											JOINT LeftHandPinky4
											{
												OFFSET 5.571716 0.000000 0.000000
												CHANNELS 3 Xrotation Yrotation Zrotation
												End Site
												{
													OFFSET -3.459808 4.342407 -0.466164
												}
											}
										}
									}
								}
								JOINT LeftHandRing1
								{
									OFFSET 22.726120 -0.094986 -6.500475
									CHANNELS 3 Xrotation Yrotation Zrotation
									JOINT LeftHandRing2
									{
										OFFSET 6.408615 0.000000 0.000000
										CHANNELS 3 Xrotation Yrotation Zrotation
										JOINT LeftHandRing3
										{
											OFFSET 6.150223 0.000000 0.000000
											CHANNELS 3 Xrotation Yrotation Zrotation
											JOINT LeftHandRing4
											{
												OFFSET 6.145386 0.000000 0.000000
												CHANNELS 3 Xrotation Yrotation Zrotation
												End Site
												{
													OFFSET -3.671402 4.923981 -0.202372
												}
											}
										}
									}
								}
								JOINT LeftHandMiddle1
								{
									OFFSET 23.373947 0.000000 0.000001
									CHANNELS 3 Xrotation Yrotation Zrotation
									JOINT LeftHandMiddle2
									{
										OFFSET 6.996567 0.000000 0.000000
										CHANNELS 3 Xrotation Yrotation Zrotation
										JOINT LeftHandMiddle3
										{
											OFFSET 7.015945 0.000000 0.000000
											CHANNELS 3 Xrotation Yrotation Zrotation
											JOINT LeftHandMiddle4
											{
												OFFSET 7.721573 0.000000 0.000000
												CHANNELS 3 Xrotation Yrotation Zrotation
												End Site
												{
													OFFSET -4.651108 6.158463 0.251582
												}
											}
										}
									}
								}
								JOINT LeftHandIndex1
								{
									OFFSET 21.310577 -0.490082 6.209344
									CHANNELS 3 Xrotation Yrotation Zrotation
									JOINT LeftHandIndex2
									{
										OFFSET 7.536453 0.000000 0.000000
										CHANNELS 3 Xrotation Yrotation Zrotation
										JOINT LeftHandIndex3
										{
											OFFSET 7.512344 0.000000 0.000000
											CHANNELS 3 Xrotation Yrotation Zrotation
											JOINT LeftHandIndex4
											{
												OFFSET 10.212402 0.000000 0.000001
												CHANNELS 3 Xrotation Yrotation Zrotation
												End Site
												{
													OFFSET -5.180801 8.690506 1.388433
												}
											}
										}
									}
								}
							}
						}
					}
				}
				JOINT RightShoulder
				{
					OFFSET -17.399500 24.608795 1.168800
					CHANNELS 3 Xrotation Yrotation Zrotation
					JOINT RightArm
					{
						OFFSET -18.980635 5.765305 1.818600
						CHANNELS 3 Xrotation Yrotation Zrotation
						JOINT RightForeArm
						{
							OFFSET -49.290169 0.000000 0.000000
							CHANNELS 3 Xrotation Yrotation Zrotation
							JOINT RightHand
							{
								OFFSET -31.562012 0.000000 0.000000
								CHANNELS 3 Xrotation Yrotation Zrotation
								JOINT RightHandThumb1
								{
									OFFSET -6.133995 -4.388519 7.076070
									CHANNELS 3 Xrotation Yrotation Zrotation
									JOINT RightHandThumb2
									{
										OFFSET -6.037666 -3.485840 3.485847
										CHANNELS 3 Xrotation Yrotation Zrotation
										JOINT RightHandThumb3
										{
											OFFSET -6.496506 -3.750763 3.750761
											CHANNELS 3 Xrotation Yrotation Zrotation
											JOINT RightHandThumb4
											{
												OFFSET -5.616882 -3.242905 3.242910
												CHANNELS 3 Xrotation Yrotation Zrotation
												End Site
												{
													OFFSET 1.254608 7.132141 0.375429
												}
											}
										}
									}
								}
								JOINT RightHandIndex1
								{
									OFFSET -21.310577 -0.490082 6.209344
									CHANNELS 3 Xrotation Yrotation Zrotation
									JOINT RightHandIndex2
									{
										OFFSET -7.536453 0.000000 0.000000
										CHANNELS 3 Xrotation Yrotation Zrotation
										JOINT RightHandIndex3
										{
											OFFSET -7.512344 0.000000 0.000000
											CHANNELS 3 Xrotation Yrotation Zrotation
											JOINT RightHandIndex4
											{
												OFFSET -10.212402 0.000000 0.000001
												CHANNELS 3 Xrotation Yrotation Zrotation
												End Site
												{
													OFFSET 5.180801 8.690506 1.388433
												}
											}
										}
									}
								}
								JOINT RightHandMiddle1
								{
									OFFSET -23.373947 0.000000 0.000001
									CHANNELS 3 Xrotation Yrotation Zrotation
									JOINT RightHandMiddle2
									{
										OFFSET -6.996567 0.000000 0.000000
										CHANNELS 3 Xrotation Yrotation Zrotation
										JOINT RightHandMiddle3
										{
											OFFSET -7.015945 0.000000 0.000000
											CHANNELS 3 Xrotation Yrotation Zrotation
											JOINT RightHandMiddle4
											{
												OFFSET -7.721573 0.000000 0.000000
												CHANNELS 3 Xrotation Yrotation Zrotation
												End Site
												{
													OFFSET 4.651108 6.158463 0.251582
												}
											}
										}
									}
								}
								JOINT RightHandRing1
								{
									OFFSET -22.726120 -0.094986 -6.500475
									CHANNELS 3 Xrotation Yrotation Zrotation
									JOINT RightHandRing2
									{
										OFFSET -6.408615 0.000000 0.000000
										CHANNELS 3 Xrotation Yrotation Zrotation
										JOINT RightHandRing3
										{
											OFFSET -6.150223 0.000000 0.000000
											CHANNELS 3 Xrotation Yrotation Zrotation
											JOINT RightHandRing4
											{
												OFFSET -6.145386 0.000000 0.000000
												CHANNELS 3 Xrotation Yrotation Zrotation
												End Site
												{
													OFFSET 3.671402 4.923981 -0.202372
												}
											}
										}
									}
								}
								JOINT RightHandPinky1
								{
									OFFSET -18.920792 -0.453171 -11.426712
									CHANNELS 3 Xrotation Yrotation Zrotation
									JOINT RightHandPinky2
									{
										OFFSET -4.919586 0.000000 0.000000
										CHANNELS 3 Xrotation Yrotation Zrotation
										JOINT RightHandPinky3
										{
											OFFSET -5.233047 0.000000 0.000000
											CHANNELS 3 Xrotation Yrotation Zrotation
											JOINT RightHandPinky4
											{
												OFFSET -5.571716 0.000000 0.000000
												CHANNELS 3 Xrotation Yrotation Zrotation
												End Site
												{
													OFFSET 3.459808 4.342407 -0.466164
												}
											}
										}
									}
								}
							}
						}
					}
				}
			}
		}
	}
	JOINT LeftUpLeg
	{
		OFFSET 19.899099 -7.885101 -3.429500
		CHANNELS 3 Xrotation Yrotation Zrotation
		JOINT LeftLeg
		{
			OFFSET 1.745560 -36.997807 10.304700
			CHANNELS 3 Xrotation Yrotation Zrotation
			JOINT LeftFoot
			{
				OFFSET -1.745558 -29.803308 -13.615400
				CHANNELS 3 Xrotation Yrotation Zrotation
				JOINT LeftToeBase
				{
					OFFSET 1.181900 -18.539904 15.226099
					CHANNELS 3 Xrotation Yrotation Zrotation
					JOINT LeftToe_End
					{
						OFFSET -0.863701 1.402801 16.534700
						CHANNELS 3 Xrotation Yrotation Zrotation
						End Site
						{
							OFFSET 0.000000 16.616566 0.000000
						}
					}
				}
			}
		}
	}
	JOINT RightUpLeg
	{
		OFFSET -19.899099 -7.885101 -3.429500
		CHANNELS 3 Xrotation Yrotation Zrotation
		JOINT RightLeg
		{
			OFFSET -1.745560 -36.997807 10.304700
			CHANNELS 3 Xrotation Yrotation Zrotation
			JOINT RightFoot
			{
				OFFSET 1.745558 -29.803308 -13.615400
				CHANNELS 3 Xrotation Yrotation Zrotation
				JOINT RightToeBase
				{
					OFFSET -1.181900 -18.539904 15.226099
					CHANNELS 3 Xrotation Yrotation Zrotation
					JOINT RightToe_End
					{
						OFFSET 0.863701 1.402801 16.534700
						CHANNELS 3 Xrotation Yrotation Zrotation
						End Site
						{
							OFFSET 0.000000 16.616566 0.000000
						}
					}
				}
			}
		}
	}
}
MOTION
Frames: 4
Frame Time: 0.033333
-113.563896 34.692535 351.772644 352.994285 -40.648146 113.988037 28.110596 -11.038471 -10.711935 6.682345 -2.252303 -2.113740 8.735371 -2.482349 -1.667440 6.614544 -4.421243 -2.978378 -20.486461 -52.948996 -24.533114 -0.000000 0.000003 0.000002 0.522786 -19.223101 -17.792656 -19.631321 -28.878894 -33.854154 -0.002787 -91.182725 -0.002783 19.370066 -19.104831 37.243068 4.972959 -0.919245 4.455774 7.416838 13.559454 3.778470 -10.276938 -8.025448 12.851082 0.000004 0.000003 -0.000002 2.241882 16.205459 -22.663510 0.579247 2.541870 -25.670892 0.579227 2.541870 -25.670824 -0.000000 0.000004 -0.000005 0.934209 5.742903 -20.428488 0.490446 2.348380 -23.589826 0.332161 1.946362 -19.367205 -0.000003 -0.000005 0.000003 -0.688706 0.206650 -14.713006 0.592716 2.569690 -25.973145 0.076826 0.946726 -9.279788 -0.000001 -0.000001 0.000008 0.332637 -2.971046 -1.456194 0.830581 3.008815 -30.858272 0.830586 3.008813 -30.858276 -0.000002 0.000001 0.000002 -7.211040 41.676592 31.324357 -26.856324 -13.870300 37.650772 -0.000022 126.140562 0.000042 -10.304690 -11.810661 4.315685 3.946656 2.806664 -3.832753 7.802595 -15.416794 -4.481847 -8.389262 2.112112 -14.768609 0.000001 0.000001 -0.000000 0.392154 2.690874 0.610891 0.662450 -2.395996 30.906650 0.662438 -2.396005 30.906640 -0.000000 -0.000001 -0.000001 -0.412532 -0.968308 13.868311 0.472806 -2.046407 26.016418 0.061230 -0.753646 9.292571 0.000003 -0.000002 -0.000007 1.198442 -6.281619 19.729300 0.391251 -1.870185 23.630129 0.265157 -1.550534 19.407134 0.000000 0.000001 -0.000003 1.997358 -15.634341 22.197616 0.462055 -2.024269 25.713733 0.462063 -2.024245 25.713745 -0.000002 -0.000001 -0.000001 -28.979157 -7.058808 56.769346 33.686011 -14.597902 3.544908 10.336737 4.456190 -18.130319 -5.309895 -0.000004 -0.000002 0.000001 0.000001 -0.000001 -92.252100 43.881619 -29.504993 85.722556 16.276547 -1.451543 15.513998 12.165188 32.505454 0.670094 0.001839 0.511403 0.000001 -0.000000 0.000000 
-114.446037 29.404884 358.662109 362.791754 -42.891898 117.382115 23.284311 -10.165738 -14.872482 6.910255 -2.248423 -2.151631 8.969421 -2.565530 -1.670821 7.199795 -3.618622 -3.687654 -15.688209 -45.501556 -22.191556 0.000000 0.000000 0.000000 -2.587538 -23.717437 -18.074726 -27.080746 -28.883538 -35.828167 0.006057 -89.286630 0.005955 32.265913 -19.756107 34.599450 5.174150 -0.867307 4.089720 7.416849 13.559461 3.778472 -10.276927 -8.025443 12.851078 -0.000001 0.000001 0.000000 1.765757 16.708260 -17.824868 0.597023 2.578480 -26.068773 0.597116 2.578707 -26.071131 0.000002 -0.000000 -0.000004 0.917158 6.047015 -16.692076 0.505129 2.381664 -23.945424 0.344505 1.981113 -19.727432 -0.000001 0.000000 0.000003 -0.503329 0.268648 -12.019615 0.605156 2.595034 -26.249078 0.081605 0.975429 -9.563778 -0.000000 0.000000 0.000007 0.756402 -2.943112 -0.643159 0.853969 3.047555 -31.300967 0.856410 3.051547 -31.346672 -0.000000 0.000003 -0.000003 -6.330996 44.678262 27.037726 -25.216657 -29.927792 45.076390 -0.000035 116.641258 0.000052 21.608079 8.141253 5.328296 3.846817 2.857356 -4.067168 7.802607 -15.416777 -4.481845 -8.389269 2.112100 -14.768612 -0.000004 -0.000002 0.000004 0.389282 2.878602 0.437166 0.655426 -2.384264 30.738307 0.655450 -2.384228 30.738290 -0.000003 0.000002 0.000001 -0.439282 -0.737772 13.263688 0.450949 -2.001035 25.397392 0.053387 -0.703883 8.674262 -0.000003 0.000000 -0.000008 1.070063 -6.048558 18.724603 0.359041 -1.794808 22.622854 0.238590 -1.472957 18.400205 0.000001 0.000002 -0.000003 1.697529 -15.205997 20.861548 0.412876 -1.918824 24.284126 0.412675 -1.918413 24.278368 0.000003 0.000002 -0.000003 -37.747778 -6.886096 46.852728 31.788274 -15.201780 5.802154 7.740214 3.953240 -18.776731 -5.612994 -0.000007 0.000015 0.000001 0.000003 0.000001 -88.927157 41.490049 -22.728737 99.314154 12.166323 1.720928 8.687333 13.875322 24.698367 2.533005 0.024855 1.811429 0.000000 -0.000001 0.000001 
-115.023796 25.682449 365.678467 367.736128 -45.105756 117.004118 16.849868 -9.568094 -16.243619 6.915907 -2.522244 -1.791579 8.988524 -2.884063 -1.252974 7.544583 -3.004372 -4.162861 -12.210014 -40.613855 -19.504609 0.000000 0.000001 -0.000000 -4.389997 -28.412467 -14.713479 -33.158212 -29.118971 -39.068757 -0.000006 -85.888338 0.000005 39.707438 -19.336318 30.738177 4.705345 -0.990297 4.943687 7.416844 13.559450 3.778469 -10.276946 -8.025444 12.851084 -0.000000 0.000004 -0.000001 0.481875 17.224204 -7.844877 0.554155 2.489047 -25.099337 0.554439 2.489664 -25.105854 -0.000000 0.000001 -0.000004 0.640678 6.439181 -8.892950 0.469374 2.299521 -23.069792 0.315166 1.897360 -18.860710 -0.000000 -0.000000 0.000005 -0.188126 0.308070 -6.218981 0.574696 2.532390 -25.568140 0.070671 0.908208 -8.899103 0.000000 -0.000000 0.000006 1.495034 -2.954818 0.963510 0.799873 2.956874 -30.268086 0.796733 2.951491 -30.207143 0.000002 0.000001 -0.000001 -0.602979 40.233584 13.832473 -10.450902 -32.621851 69.215327 -0.000053 117.105929 0.000079 19.500996 16.191426 -7.290754 3.721444 2.895884 -4.285991 7.802597 -15.416775 -4.481851 -8.389254 2.112098 -14.768607 -0.000001 -0.000002 -0.000003 0.387664 3.033981 0.261041 0.648446 -2.372461 30.569949 0.648442 -2.372462 30.569956 -0.000000 -0.000001 -0.000002 -0.463391 -0.499112 12.659911 0.429585 -1.955423 24.778417 0.046070 -0.654063 8.055964 -0.000002 0.000001 0.000003 0.947228 -5.807169 17.721324 0.328155 -1.718874 21.615672 0.213392 -1.394967 17.393350 -0.000005 -0.000000 0.000002 1.416542 -14.765549 19.533641 0.366336 -1.812216 22.854686 0.365974 -1.811343 22.843142 -0.000001 -0.000004 0.000005 -53.145989 -7.399184 31.978789 36.079433 -14.060820 6.521109 5.979125 -1.382819 -12.531357 -5.915890 -0.000001 -0.000018 -0.000000 0.000001 0.000002 -75.360564 42.219752 -21.948150 109.646229 6.575459 3.984858 -3.551089 19.638836 24.202579 3.453730 -0.000010 0.000023 -0.000000 0.000001 -0.000001 
-115.504128 23.602150 372.643219 369.971157 -47.654213 113.608954 13.102275 -10.096797 -14.196819 6.778570 -2.968445 -1.147484 8.861837 -3.275812 -0.554029 7.600611 -2.610411 -4.246308 -11.419580 -36.854717 -17.641054 0.000001 0.000002 0.000000 -5.179879 -34.971682 -8.527620 -32.501489 -30.546310 -38.194865 0.000229 -81.856778 0.000240 46.048251 -21.434365 54.567051 2.010917 -1.834993 9.933298 7.416846 13.559473 3.778465 -10.276937 -8.025456 12.851085 -0.000000 -0.000002 -0.000003 -0.520695 16.633254 0.167429 0.337379 1.961149 -19.520406 0.337654 1.961921 -19.528450 0.000003 -0.000002 -0.000001 0.213489 6.083077 -2.198163 0.288921 1.818760 -18.051259 0.170628 1.404998 -13.847491 -0.000003 0.000000 0.000005 0.038938 0.002662 -0.724360 0.414755 2.166940 -21.668502 0.022446 0.512877 -5.011272 -0.000002 0.000003 0.000006 1.769841 -3.226100 2.122004 0.516656 2.407442 -24.221611 0.488280 2.343391 -23.536729 0.000001 0.000003 0.000001 0.205761 19.968700 3.335967 -0.222518 -7.158599 80.957597 -0.000038 114.381913 0.000063 20.032965 17.320538 -9.821833 3.586886 2.930471 -4.499098 7.802602 -15.416780 -4.481848 -8.389271 2.112106 -14.768616 -0.000004 0.000001 -0.000001 0.387093 3.143202 0.081470 0.641485 -2.360661 30.401599 0.641489 -2.360669 30.401616 -0.000005 -0.000003 -0.000002 -0.482936 -0.259850 12.056353 0.408707 -1.909568 24.159460 0.039271 -0.604173 7.437688 -0.000001 -0.000000 0.000001 0.832594 -5.565103 16.719031 0.298627 -1.642401 20.608581 0.189570 -1.316528 16.386554 0.000001 -0.000001 -0.000005 1.154718 -14.313641 18.213811 0.322477 -1.704461 21.425412 0.321965 -1.703165 21.408104 0.000001 -0.000002 0.000007 -68.323660 -4.096297 16.076288 39.100743 -10.289559 0.966521 13.313227 -9.602101 3.929568 -6.219676 0.000012 0.000007 -0.000003 0.000001 0.000000 -48.044319 42.285397 -35.152614 116.927320 12.113156 10.886423 -21.020901 22.039429 25.892108 5.242658 -0.000004 0.000021 0.000001 -0.000000 0.000001 
